HIERARCHY
ROOT Hips
{
 OFFSET 0.000000 0.000000 0.000000
 CHANNELS 6 Xposition Yposition Zposition Yrotation Xrotation Zrotation
 JOINT Chest
 {
  OFFSET 0.000000 8.841881 -6.654894
  CHANNELS 3 Yrotation Xrotation Zrotation
  JOINT Chest2
  {
   OFFSET 0.000000 7.072353 0.028336
   CHANNELS 3 Yrotation Xrotation Zrotation
   JOINT Chest3
   {
    OFFSET 0.000000 10.125157 -0.014641
    CHANNELS 3 Yrotation Xrotation Zrotation
    JOINT Chest4
    {
     OFFSET 0.000000 10.441534 -0.016102
     CHANNELS 3 Yrotation Xrotation Zrotation
     JOINT Neck
     {
      OFFSET 0.000000 16.849355 0.013667
      CHANNELS 3 Yrotation Xrotation Zrotation
      JOINT Head
      {
       OFFSET 0.000000 10.107081 0.000000
       CHANNELS 3 Yrotation Xrotation Zrotation
       End Site
       {
        OFFSET 0.000000 15.162723 0.000000
       }
      }
     }
     JOINT RightCollar
     {
      OFFSET -2.775264 10.553866 0.006834
      CHANNELS 3 Yrotation Xrotation Zrotation
      JOINT RightShoulder
      {
       OFFSET -16.020521 0.000000 0.000000
       CHANNELS 3 Yrotation Xrotation Zrotation
       JOINT RightElbow
       {
        OFFSET -23.902096 0.000000 0.000000
        CHANNELS 3 Yrotation Xrotation Zrotation
        JOINT RightWrist
        {
         OFFSET -23.631001 0.000000 -0.000566
         CHANNELS 3 Yrotation Xrotation Zrotation
         End Site
         {
          OFFSET -18.828190 0.690323 0.103033
         }
        }
       }
      }
     }
     JOINT LeftCollar
     {
      OFFSET 2.775264 10.553866 0.006834
      CHANNELS 3 Yrotation Xrotation Zrotation
      JOINT LeftShoulder
      {
       OFFSET 16.020521 0.000000 0.000000
       CHANNELS 3 Yrotation Xrotation Zrotation
       JOINT LeftElbow
       {
        OFFSET 23.902096 0.000000 0.000000
        CHANNELS 3 Yrotation Xrotation Zrotation
        JOINT LeftWrist
        {
         OFFSET 23.631001 0.000000 -0.000566
         CHANNELS 3 Yrotation Xrotation Zrotation
         End Site
         {
          OFFSET 18.828190 0.690323 0.103033
         }
        }
       }
      }
     }
    }
   }
  }
 }
 JOINT RightHip
 {
  OFFSET -9.646452 0.046004 -0.007286
  CHANNELS 3 Yrotation Xrotation Zrotation
  JOINT RightKnee
  {
   OFFSET 0.000000 -48.923989 0.009793
   CHANNELS 3 Yrotation Xrotation Zrotation
   JOINT RightAnkle
   {
    OFFSET 0.000000 -37.831989 0.111451
    CHANNELS 3 Yrotation Xrotation Zrotation
    JOINT RightToe
    {
     OFFSET 0.000000 -8.084683 17.519885
     CHANNELS 3 Yrotation Xrotation Zrotation
     End Site
     {
      OFFSET 0.000000 -1.047441 5.170765
     }
    }
   }
  }
 }
 JOINT LeftHip
 {
  OFFSET 9.646452 0.044016 -0.006971
  CHANNELS 3 Yrotation Xrotation Zrotation
  JOINT LeftKnee
  {
   OFFSET 0.000000 -48.923989 0.009793
   CHANNELS 3 Yrotation Xrotation Zrotation
   JOINT LeftAnkle
   {
    OFFSET 0.000000 -37.831989 0.111451
    CHANNELS 3 Yrotation Xrotation Zrotation
    JOINT LeftToe
    {
     OFFSET 0.000000 -8.084683 17.519885
     CHANNELS 3 Yrotation Xrotation Zrotation
     End Site
     {
      OFFSET 0.000000 -1.047441 5.170765
     }
    }
   }
  }
 }
}
MOTION
Frames: 10
Frame Time: 0.004167
7.694890 96.311693 15.520094 0.600157 9.826905 -1.050349 -1.432356 1.314221 0.987312 -0.788405 -12.899473 0.508203 -0.536152 -0.006606 0.236721 -0.141488 9.497209 0.069198 -0.549397 -2.605756 -0.296733 -1.010803 -4.841418 -0.531802 -2.271761 -4.699972 8.670119 -10.582429 -6.181902 70.445880 2.085283 -2.613376 -0.536075 -3.466505 1.831918 2.322065 -0.946794 -5.295493 -8.504099 6.153832 -2.120744 -69.515912 -2.664440 -7.603222 -3.817366 2.398949 7.661273 -1.685390 -4.895745 -2.263075 1.174624 -1.013348 -1.981055 0.303007 -12.803889 -3.284478 0.884331 0.000000 0.000000 0.000000 1.435943 -6.493075 4.219182 1.326026 4.487977 -0.196541 4.948342 -7.001491 -2.182931 0.000000 0.000000 0.000000
7.704193 96.314686 15.514416 0.597941 9.818333 -1.050344 -1.430030 1.312848 0.986571 -0.787210 -12.900121 0.507796 -0.535335 -0.007056 0.236615 -0.141260 9.497081 0.069166 -0.555254 -2.605556 -0.297213 -1.021677 -4.841073 -0.532482 -2.288741 -4.683382 8.659555 -10.583386 -6.178081 70.444807 2.091068 -2.615487 -0.533369 -3.459765 1.833614 2.331705 -0.951007 -5.279319 -8.486463 6.159816 -2.120854 -69.544408 -2.664826 -7.606810 -3.816718 2.398846 7.659967 -1.677556 -4.886729 -2.263904 1.173780 -1.035006 -1.972113 0.293349 -12.795797 -3.276155 0.887382 -0.000000 -0.000000 0.000000 1.431593 -6.486715 4.217290 1.348118 4.485140 -0.203747 4.930259 -6.991461 -2.171101 0.000000 0.000000 0.000000
7.713615 96.317752 15.508630 0.595824 9.809701 -1.050342 -1.427831 1.311620 0.985886 -0.786082 -12.900700 0.507419 -0.534565 -0.007458 0.236521 -0.141044 9.496967 0.069137 -0.561501 -2.605397 -0.297665 -1.033276 -4.840804 -0.533099 -2.305689 -4.666651 8.648467 -10.584484 -6.174251 70.443974 2.096868 -2.617322 -0.530527 -3.452879 1.835373 2.341723 -0.955118 -5.262867 -8.468407 6.166034 -2.121170 -69.573517 -2.665082 -7.610459 -3.816087 2.398720 7.658610 -1.669738 -4.877938 -2.264760 1.173000 -1.057121 -1.963152 0.283505 -12.787195 -3.267581 0.890428 -0.000000 0.000000 -0.000000 1.427442 -6.480363 4.215385 1.370465 4.482199 -0.211123 4.911610 -6.981171 -2.159024 -0.000000 0.000000 0.000000
7.723120 96.320870 15.502768 0.593776 9.801026 -1.050342 -1.425721 1.310494 0.985241 -0.785000 -12.901231 0.507063 -0.533826 -0.007827 0.236434 -0.140837 9.496862 0.069111 -0.568019 -2.605265 -0.298100 -1.045382 -4.840589 -0.533670 -2.322616 -4.649822 8.637010 -10.585679 -6.170415 70.443309 2.102677 -2.618965 -0.527589 -3.445891 1.837174 2.352005 -0.959156 -5.246222 -8.450058 6.172416 -2.121630 -69.603055 -2.665246 -7.614152 -3.815468 2.398578 7.657216 -1.661932 -4.869305 -2.265634 1.172266 -1.079556 -1.954178 0.273529 -12.778237 -3.258832 0.893472 -0.000000 -0.000000 -0.000000 1.423430 -6.474017 4.213471 1.392990 4.479186 -0.218616 4.892564 -6.970696 -2.146775 -0.000000 -0.000000 -0.000000
7.732673 96.324017 15.496863 0.591767 9.792328 -1.050342 -1.423662 1.309426 0.984619 -0.783946 -12.901734 0.506720 -0.533106 -0.008176 0.236352 -0.140636 9.496762 0.069086 -0.574694 -2.605150 -0.298524 -1.057777 -4.840404 -0.534218 -2.339530 -4.632938 8.625339 -10.586929 -6.166576 70.442739 2.108491 -2.620499 -0.524595 -3.438845 1.838998 2.362440 -0.963151 -5.229465 -8.431541 6.178891 -2.122170 -69.632839 -2.665358 -7.617869 -3.814856 2.398426 7.655802 -1.654132 -4.860762 -2.266519 1.171558 -1.102175 -1.945198 0.263474 -12.769074 -3.249983 0.896513 0.000000 0.000000 -0.000000 1.419498 -6.467674 4.211551 1.415617 4.476133 -0.226177 4.873295 -6.960115 -2.134428 0.000000 0.000000 -0.000000
7.742238 96.327171 15.490947 0.589769 9.783624 -1.050342 -1.421615 1.308372 0.984002 -0.782898 -12.902230 0.506379 -0.532390 -0.008521 0.236271 -0.140435 9.496664 0.069061 -0.581407 -2.605039 -0.298947 -1.070245 -4.840227 -0.534761 -2.356442 -4.616043 8.613608 -10.588193 -6.162735 70.442192 2.114305 -2.622007 -0.521586 -3.431787 1.840827 2.372914 -0.967133 -5.212680 -8.412983 6.185388 -2.122725 -69.662684 -2.665457 -7.621593 -3.814246 2.398271 7.654383 -1.646334 -4.852242 -2.267406 1.170858 -1.124839 -1.936219 0.253395 -12.759859 -3.241110 0.899554 0.000000 -0.000000 -0.000000 1.415587 -6.461333 4.209629 1.438270 4.473070 -0.233755 4.853972 -6.949503 -2.122059 -0.000000 -0.000000 0.000000
7.751779 96.330310 15.485053 0.587751 9.774932 -1.050342 -1.419543 1.307290 0.983375 -0.781837 -12.902741 0.506032 -0.531666 -0.008875 0.236188 -0.140232 9.496563 0.069036 -0.588042 -2.604920 -0.299377 -1.082567 -4.840034 -0.535320 -2.373361 -4.599179 8.601973 -10.589427 -6.158896 70.441595 2.120115 -2.623571 -0.518603 -3.424760 1.842641 2.383315 -0.971134 -5.195949 -8.394511 6.191836 -2.123234 -69.692407 -2.665584 -7.625304 -3.813633 2.398118 7.652973 -1.638534 -4.843677 -2.268288 1.170147 -1.147411 -1.927248 0.243346 -12.750743 -3.232289 0.902594 0.000000 -0.000000 0.000000 1.411636 -6.454990 4.207707 1.460873 4.470029 -0.241298 4.834766 -6.938938 -2.109742 0.000000 0.000000 -0.000000
7.761260 96.333413 15.479213 0.585683 9.766270 -1.050339 -1.417407 1.306135 0.982720 -0.780742 -12.903285 0.505671 -0.530918 -0.009253 0.236099 -0.140023 9.496456 0.069009 -0.594482 -2.604781 -0.299822 -1.094526 -4.839804 -0.535914 -2.390297 -4.582391 8.590590 -10.590590 -6.155062 70.440877 2.125916 -2.625275 -0.515687 -3.417809 1.844422 2.393529 -0.975183 -5.179356 -8.376251 6.198164 -2.123634 -69.721825 -2.665777 -7.628985 -3.813012 2.397974 7.651587 -1.630726 -4.834998 -2.269156 1.169405 -1.169755 -1.918291 0.233381 -12.741879 -3.223595 0.905636 0.000000 0.000000 -0.000000 1.407585 -6.448643 4.205790 1.483350 4.467042 -0.248757 4.815850 -6.928498 -2.097551 0.000000 -0.000000 -0.000000
7.770646 96.336458 15.473459 0.583537 9.757656 -1.050334 -1.415169 1.304863 0.982020 -0.779594 -12.903885 0.505286 -0.530133 -0.009670 0.236002 -0.139804 9.496337 0.068980 -0.600611 -2.604609 -0.300290 -1.105906 -4.839512 -0.536564 -2.407258 -4.565720 8.579612 -10.591640 -6.151234 70.439966 2.131704 -2.627202 -0.512877 -3.410978 1.846149 2.403445 -0.979312 -5.162985 -8.358330 6.204302 -2.123861 -69.750752 -2.666076 -7.632616 -3.812378 2.397846 7.650242 -1.622905 -4.826139 -2.270002 1.168613 -1.191732 -1.909354 0.223555 -12.733420 -3.215103 0.908679 0.000000 0.000000 0.000000 1.403375 -6.442290 4.203881 1.505624 4.464139 -0.256080 4.797392 -6.918261 -2.085562 0.000000 0.000000 -0.000000
7.779901 96.339421 15.467824 0.581282 9.749108 -1.050326 -1.412791 1.303432 0.981260 -0.778372 -12.904560 0.504869 -0.529298 -0.010139 0.235894 -0.139571 9.496203 0.068947 -0.606311 -2.604393 -0.300791 -1.116488 -4.839136 -0.537289 -2.424254 -4.549210 8.569196 -10.592533 -6.147417 70.438787 2.137472 -2.629435 -0.510215 -3.404311 1.847804 2.412949 -0.983552 -5.146916 -8.340875 6.210178 -2.123853 -69.779006 -2.666520 -7.636180 -3.811726 2.397740 7.648952 -1.615068 -4.817031 -2.270818 1.167754 -1.213205 -1.900444 0.213922 -12.725517 -3.206888 0.911726 0.000000 -0.000000 0.000000 1.398947 -6.435928 4.201981 1.527619 4.461352 -0.263216 4.779565 -6.908302 -2.073849 -0.000000 0.000000 -0.000000
